<svg xmlns="http://www.w3.org/2000/svg" xmlns:xlink="http://www.w3.org/1999/xlink" width="500" zoomAndPan="magnify" viewBox="0 0 375 374.999991" height="500" preserveAspectRatio="xMidYMid meet" version="1.2"><defs><clipPath id="44a5d6a824"><path d="M 5.582031 5.582031 L 369.332031 5.582031 L 369.332031 369.332031 L 5.582031 369.332031 Z M 5.582031 5.582031 "/></clipPath><clipPath id="07d2822e45"><path d="M 187.457031 5.582031 C 87.011719 5.582031 5.582031 87.011719 5.582031 187.457031 C 5.582031 287.90625 87.011719 369.332031 187.457031 369.332031 C 287.90625 369.332031 369.332031 287.90625 369.332031 187.457031 C 369.332031 87.011719 287.90625 5.582031 187.457031 5.582031 Z M 187.457031 5.582031 "/></clipPath><clipPath id="2f61553cea"><path d="M 14.648438 14.648438 L 360.351562 14.648438 L 360.351562 360.351562 L 14.648438 360.351562 Z M 14.648438 14.648438 "/></clipPath><clipPath id="e4383efac1"><path d="M 187.5 14.648438 C 92.035156 14.648438 14.648438 92.035156 14.648438 187.5 C 14.648438 282.964844 92.035156 360.351562 187.5 360.351562 C 282.964844 360.351562 360.351562 282.964844 360.351562 187.5 C 360.351562 92.035156 282.964844 14.648438 187.5 14.648438 Z M 187.5 14.648438 "/></clipPath><clipPath id="4b1ae7c8c1"><path d="M 68.269531 205 L 151 205 L 151 260 L 68.269531 260 Z M 68.269531 205 "/></clipPath><clipPath id="5dac7323c0"><path d="M 239 235 L 306.769531 235 L 306.769531 279.664062 L 239 279.664062 Z M 239 235 "/></clipPath></defs><g id="bab6e15b1f"><g clip-rule="nonzero" clip-path="url(#44a5d6a824)"><g clip-rule="nonzero" clip-path="url(#07d2822e45)"><path style="fill:none;stroke-width:8;stroke-linecap:butt;stroke-linejoin:miter;stroke:#5ebef2;stroke-opacity:1;stroke-miterlimit:4;" d="M 242.553434 -0.00125754 C 108.596142 -0.00125754 -0.00126354 108.596148 -0.00126354 242.55344 C -0.00126354 376.515941 108.596142 485.108137 242.553434 485.108137 C 376.515935 485.108137 485.108131 376.515941 485.108131 242.55344 C 485.108131 108.596148 376.515935 -0.00125754 242.553434 -0.00125754 Z M 242.553434 -0.00125754 " transform="matrix(0.749831,0,0,0.749831,5.582979,5.582974)"/></g></g><g clip-rule="nonzero" clip-path="url(#2f61553cea)"><g clip-rule="nonzero" clip-path="url(#e4383efac1)"><path style="fill:none;stroke-width:2;stroke-linecap:butt;stroke-linejoin:miter;stroke:#5ebef2;stroke-opacity:1;stroke-miterlimit:4;" d="M 230.468929 0.000169683 C 103.182462 0.000169683 0.000163683 103.182468 0.000163683 230.468935 C 0.000163683 357.755402 103.182462 460.9377 230.468929 460.9377 C 357.755396 460.9377 460.937694 357.755402 460.937694 230.468935 C 460.937694 103.182468 357.755396 0.000169683 230.468929 0.000169683 Z M 230.468929 0.000169683 " transform="matrix(0.75,0,0,0.75,14.648315,14.64831)"/></g></g><path style=" stroke:none;fill-rule:nonzero;fill:#2c8edd;fill-opacity:1;" d="M 262.800781 160.6875 L 228 136.121094 L 228 132.476562 L 262.800781 157.042969 Z M 262.800781 169.203125 L 228 144.632812 L 228 140.996094 L 262.800781 165.5625 Z M 262.800781 177.722656 L 228 153.15625 L 228 149.511719 L 262.800781 174.078125 Z M 262.800781 186.238281 L 228 161.671875 L 228 158.027344 L 262.800781 182.59375 Z M 262.800781 194.753906 L 228 170.1875 L 228 166.546875 L 262.800781 191.113281 Z M 262.800781 203.273438 L 228 178.707031 L 228 175.0625 L 262.800781 199.628906 Z M 262.800781 211.789062 L 228 187.222656 L 228 183.578125 L 262.800781 208.144531 Z M 228 124.855469 L 220.488281 129.179688 L 220.488281 196.046875 L 223.902344 196.476562 L 225.621094 196.695312 L 226.871094 197.890625 L 234.53125 205.222656 L 253.554688 218.652344 L 259.320312 217.847656 L 228 195.738281 L 228 192.097656 L 262.800781 216.664062 L 262.800781 217.359375 L 263.78125 217.226562 L 266.726562 216.8125 L 267.128906 217.320312 L 267.128906 152.476562 Z M 213.445312 133.242188 L 213.445312 160.964844 L 211.519531 160.964844 L 211.519531 134.351562 L 204.792969 138.230469 L 204.792969 181.574219 L 203.449219 181.574219 L 203.449219 139.003906 L 199.066406 141.527344 L 199.066406 186.757812 L 213.109375 186.757812 L 213.109375 195.121094 L 217.671875 195.691406 L 217.671875 130.804688 L 213.445312 133.242188 "/><path style=" stroke:none;fill-rule:nonzero;fill:#5ebef2;fill-opacity:1;" d="M 195.214844 239.703125 L 195.59375 240.035156 L 195.59375 243.042969 L 195.214844 242.710938 L 193.832031 241.484375 L 193.832031 238.476562 L 195.214844 239.703125 "/><path style=" stroke:none;fill-rule:nonzero;fill:#5ebef2;fill-opacity:1;" d="M 222.164062 86.417969 L 213.726562 78.945312 L 213.726562 62.273438 L 222.164062 69.746094 Z M 222.164062 106.101562 L 213.726562 98.628906 L 213.726562 81.957031 L 222.164062 89.429688 Z M 212.210938 77.605469 L 206.730469 72.75 L 203.769531 70.136719 L 203.769531 53.460938 L 206.730469 56.078125 L 212.210938 60.929688 Z M 212.210938 97.285156 L 206.730469 92.4375 L 203.769531 89.820312 L 203.769531 73.144531 L 206.730469 75.761719 L 212.210938 80.613281 Z M 212.210938 116.972656 L 206.730469 112.117188 L 203.769531 109.503906 L 203.769531 92.828125 L 206.730469 95.445312 L 212.210938 100.296875 Z M 202.257812 68.792969 L 200.976562 67.652344 L 195.214844 62.5625 L 193.824219 61.328125 L 193.824219 44.65625 L 195.214844 45.890625 L 200.976562 50.984375 L 202.257812 52.121094 Z M 202.257812 88.476562 L 200.976562 87.339844 L 195.214844 82.246094 L 193.824219 81.011719 L 193.824219 64.335938 L 195.214844 65.570312 L 200.976562 70.664062 L 202.257812 71.800781 Z M 202.257812 108.160156 L 200.976562 107.019531 L 195.214844 101.929688 L 193.824219 100.695312 L 193.824219 84.019531 L 195.214844 85.253906 L 200.976562 90.347656 L 202.257812 91.484375 Z M 202.257812 127.84375 L 200.976562 126.707031 L 195.214844 121.613281 L 193.824219 120.378906 L 193.824219 103.703125 L 195.214844 104.941406 L 200.976562 110.03125 L 202.257812 111.167969 Z M 192.300781 59.984375 L 189.457031 57.46875 L 184.433594 53.023438 L 183.867188 52.515625 L 183.867188 35.84375 L 184.433594 36.351562 L 189.457031 40.796875 L 192.300781 43.3125 Z M 192.300781 79.667969 L 189.457031 77.152344 L 184.433594 72.703125 L 183.867188 72.199219 L 183.867188 55.527344 L 184.433594 56.035156 L 189.457031 60.480469 L 192.300781 63 Z M 192.300781 99.351562 L 189.457031 96.835938 L 184.433594 92.386719 L 183.867188 91.882812 L 183.867188 75.207031 L 184.433594 75.714844 L 189.457031 80.160156 L 192.300781 82.679688 Z M 192.300781 119.035156 L 189.457031 116.515625 L 184.433594 112.070312 L 183.867188 111.566406 L 183.867188 94.890625 L 184.433594 95.398438 L 189.457031 99.84375 L 192.300781 102.359375 Z M 192.300781 138.714844 L 189.457031 136.195312 L 184.433594 131.75 L 183.867188 131.25 L 183.867188 114.570312 L 184.433594 115.078125 L 189.457031 119.523438 L 192.300781 122.042969 Z M 192.300781 158.398438 L 189.457031 155.878906 L 184.433594 151.433594 L 183.867188 150.925781 L 183.867188 134.257812 L 184.433594 134.757812 L 189.457031 139.203125 L 192.300781 141.722656 Z M 192.300781 178.082031 L 189.457031 175.5625 L 184.433594 171.117188 L 183.867188 170.609375 L 183.867188 153.9375 L 184.433594 154.441406 L 189.457031 158.890625 L 192.300781 161.40625 Z M 222.339844 64.554688 L 212.128906 55.519531 L 206.375 50.421875 L 200.621094 45.328125 L 194.859375 40.234375 L 189.105469 35.136719 L 184.082031 30.691406 L 179.917969 27.007812 L 146.160156 51.398438 L 146.160156 89.035156 L 169.402344 98.488281 L 171.566406 99.367188 L 171.566406 191.390625 L 187.503906 193.519531 L 184.433594 190.800781 L 183.867188 190.292969 L 183.867188 173.625 L 184.433594 174.125 L 189.457031 178.570312 L 192.300781 181.089844 L 192.300781 186.757812 L 193.824219 186.757812 L 193.824219 182.433594 L 193.832031 182.441406 L 193.832031 179.429688 L 193.824219 179.421875 L 193.824219 162.75 L 193.832031 162.757812 L 193.832031 159.75 L 193.824219 159.742188 L 193.824219 143.066406 L 193.832031 143.074219 L 193.832031 140.066406 L 193.824219 140.058594 L 193.824219 123.382812 L 195.214844 124.621094 L 200.976562 129.707031 L 202.257812 130.847656 L 202.257812 133.648438 L 203.769531 132.777344 L 203.769531 132.191406 L 204.171875 132.546875 L 206.226562 131.359375 L 203.769531 129.183594 L 203.769531 112.511719 L 206.730469 115.128906 L 212.210938 119.980469 L 212.210938 127.914062 L 213.726562 127.039062 L 213.726562 121.320312 L 217.636719 124.785156 L 217.875 124.648438 L 219.695312 123.59375 L 213.726562 118.3125 L 213.726562 101.636719 L 222.164062 109.113281 L 222.164062 122.175781 L 224.839844 120.636719 L 224.839844 66.769531 L 222.339844 64.554688 "/><path style=" stroke:none;fill-rule:nonzero;fill:#2c8edd;fill-opacity:1;" d="M 107.839844 114.347656 L 137.054688 98.023438 L 137.054688 104.664062 L 140.316406 102.351562 L 166.265625 112.902344 L 166.265625 103.53125 L 137.75 91.933594 L 107.839844 114.347656 "/><path style=" stroke:none;fill-rule:nonzero;fill:#2c8edd;fill-opacity:1;" d="M 107.839844 129.953125 L 137.054688 113.625 L 137.054688 120.269531 L 140.316406 117.957031 L 166.265625 128.507812 L 166.265625 119.136719 L 137.75 107.539062 L 107.839844 129.953125 "/><path style=" stroke:none;fill-rule:nonzero;fill:#2c8edd;fill-opacity:1;" d="M 107.839844 145.558594 L 137.054688 129.230469 L 137.054688 135.875 L 140.316406 133.5625 L 166.265625 144.113281 L 166.265625 134.742188 L 137.75 123.144531 L 107.839844 145.558594 "/><path style=" stroke:none;fill-rule:nonzero;fill:#2c8edd;fill-opacity:1;" d="M 107.839844 161.160156 L 137.054688 144.835938 L 137.054688 151.480469 L 140.316406 149.164062 L 166.265625 159.71875 L 166.265625 150.34375 L 137.75 138.746094 L 107.839844 161.160156 "/><path style=" stroke:none;fill-rule:nonzero;fill:#2c8edd;fill-opacity:1;" d="M 107.839844 176.765625 L 137.054688 160.441406 L 137.054688 167.082031 L 140.316406 164.769531 L 166.265625 175.324219 L 166.265625 165.949219 L 137.75 154.351562 L 107.839844 176.765625 "/><path style=" stroke:none;fill-rule:nonzero;fill:#2c8edd;fill-opacity:1;" d="M 107.839844 192.371094 L 115.148438 186.894531 L 113.117188 189.421875 Z M 107.839844 192.371094 "/><path style=" stroke:none;fill-rule:nonzero;fill:#2c8edd;fill-opacity:1;" d="M 166.265625 181.550781 L 166.265625 190.925781 L 165.378906 190.5625 L 140.316406 180.375 L 137.054688 182.6875 L 137.054688 176.046875 L 121.539062 184.714844 L 120.273438 184.546875 L 118.582031 184.320312 L 137.75 169.957031 L 166.265625 181.550781 "/><path style=" stroke:none;fill-rule:nonzero;fill:#2c8edd;fill-opacity:1;" d="M 142.570312 187.519531 L 136.257812 186.679688 L 137.75 185.5625 Z M 142.570312 187.519531 "/><g clip-rule="nonzero" clip-path="url(#4b1ae7c8c1)"><path style=" stroke:none;fill-rule:nonzero;fill:#5ebef2;fill-opacity:1;" d="M 150.433594 237.664062 C 149.894531 237.214844 129.539062 223.683594 119.578125 215.546875 L 68.261719 259.160156 L 115.769531 209.234375 L 119.574219 205.234375 L 126.039062 212.027344 L 150.433594 237.664062 "/></g><path style=" stroke:none;fill-rule:nonzero;fill:#2c8edd;fill-opacity:1;" d="M 209.59375 219.03125 L 189.308594 219.03125 L 189.308594 226.054688 L 181.265625 227.03125 L 179.535156 227.242188 L 178.277344 228.445312 L 163.320312 242.761719 L 119.578125 196.789062 L 83.164062 235.058594 L 119.582031 189.730469 L 192.117188 199.414062 L 192.117188 208.277344 L 195.9375 212.289062 L 195.9375 191.992188 L 207.875 191.992188 L 207.875 199.738281 L 223.25 201.671875 L 242.589844 220.183594 L 209.59375 224.792969 L 209.59375 219.03125 "/><path style=" stroke:none;fill-rule:nonzero;fill:#5ebef2;fill-opacity:1;" d="M 109.589844 241.339844 L 109.589844 243.589844 L 117.839844 243.589844 L 117.839844 233.089844 C 113.285156 233.089844 109.589844 236.78125 109.589844 241.339844 "/><path style=" stroke:none;fill-rule:nonzero;fill:#5ebef2;fill-opacity:1;" d="M 121.089844 233.089844 L 121.089844 243.589844 L 129.34375 243.589844 L 129.34375 241.339844 C 129.34375 236.78125 125.648438 233.089844 121.089844 233.089844 "/><path style=" stroke:none;fill-rule:nonzero;fill:#5ebef2;fill-opacity:1;" d="M 109.589844 255.085938 L 117.839844 255.085938 L 117.839844 246.832031 L 109.589844 246.832031 L 109.589844 255.085938 "/><path style=" stroke:none;fill-rule:nonzero;fill:#5ebef2;fill-opacity:1;" d="M 121.089844 255.085938 L 129.34375 255.085938 L 129.34375 246.832031 L 121.089844 246.832031 L 121.089844 255.085938 "/><g clip-rule="nonzero" clip-path="url(#5dac7323c0)"><path style=" stroke:none;fill-rule:nonzero;fill:#2c8edd;fill-opacity:1;" d="M 306.707031 279.507812 L 277.042969 254.296875 L 264.503906 243.636719 C 260.707031 246.746094 255.066406 250.800781 250.070312 254.296875 C 244.289062 258.339844 239.367188 261.628906 239.128906 261.828125 L 246.296875 254.296875 L 259.191406 240.742188 L 261.515625 238.300781 L 264.503906 235.15625 L 267.636719 238.449219 L 306.707031 279.507812 "/></g><path style=" stroke:none;fill-rule:nonzero;fill:#5ebef2;fill-opacity:1;" d="M 294.453125 259.683594 L 264.503906 228.210938 L 258.058594 234.988281 L 239.6875 254.296875 L 219.503906 275.507812 L 136.683594 275.507812 L 166.929688 246.554688 L 181.898438 232.226562 L 194.546875 230.691406 L 194.546875 224.265625 L 204.359375 224.265625 L 204.359375 240.960938 L 207.5 237.660156 L 207.5 230.367188 L 247.410156 224.796875 L 264.503906 222.410156 L 294.453125 259.683594 "/><path style=" stroke:none;fill-rule:nonzero;fill:#2c8edd;fill-opacity:1;" d="M 272.71875 264.851562 L 272.71875 266.703125 L 265.933594 266.703125 L 265.933594 258.066406 C 269.683594 258.066406 272.71875 261.105469 272.71875 264.851562 "/><path style=" stroke:none;fill-rule:nonzero;fill:#2c8edd;fill-opacity:1;" d="M 263.261719 258.066406 L 263.261719 266.703125 L 256.472656 266.703125 L 256.472656 264.851562 C 256.472656 261.105469 259.511719 258.066406 263.261719 258.066406 "/><path style=" stroke:none;fill-rule:nonzero;fill:#2c8edd;fill-opacity:1;" d="M 272.71875 276.15625 L 265.933594 276.15625 L 265.933594 269.367188 L 272.71875 269.367188 L 272.71875 276.15625 "/><path style=" stroke:none;fill-rule:nonzero;fill:#2c8edd;fill-opacity:1;" d="M 263.261719 276.15625 L 256.472656 276.15625 L 256.472656 269.367188 L 263.261719 269.367188 L 263.261719 276.15625 "/><path style=" stroke:none;fill-rule:nonzero;fill:#5ebef2;fill-opacity:1;" d="M 165.378906 190.5625 L 166.265625 190.925781 L 166.265625 190.683594 Z M 165.378906 190.5625 "/><g style="fill:#2c8edd;fill-opacity:1;"><g transform="translate(87.288542, 323.645955)"><path style="stroke:none" d="M 14.734375 0.34375 C 12.234375 0.34375 9.976562 -0.195312 7.96875 -1.28125 C 5.96875 -2.363281 4.394531 -3.867188 3.25 -5.796875 C 2.113281 -7.722656 1.546875 -9.875 1.546875 -12.25 C 1.546875 -14.625 2.113281 -16.773438 3.25 -18.703125 C 4.394531 -20.628906 5.96875 -22.132812 7.96875 -23.21875 C 9.976562 -24.300781 12.234375 -24.84375 14.734375 -24.84375 C 17.234375 -24.84375 19.484375 -24.300781 21.484375 -23.21875 C 23.492188 -22.132812 25.070312 -20.632812 26.21875 -18.71875 C 27.363281 -16.8125 27.9375 -14.65625 27.9375 -12.25 C 27.9375 -9.84375 27.363281 -7.679688 26.21875 -5.765625 C 25.070312 -3.859375 23.492188 -2.363281 21.484375 -1.28125 C 19.484375 -0.195312 17.234375 0.34375 14.734375 0.34375 Z M 14.734375 -3.640625 C 16.367188 -3.640625 17.835938 -4.003906 19.140625 -4.734375 C 20.453125 -5.472656 21.476562 -6.5 22.21875 -7.8125 C 22.96875 -9.132812 23.34375 -10.613281 23.34375 -12.25 C 23.34375 -13.882812 22.96875 -15.359375 22.21875 -16.671875 C 21.476562 -17.992188 20.453125 -19.019531 19.140625 -19.75 C 17.835938 -20.488281 16.367188 -20.859375 14.734375 -20.859375 C 13.097656 -20.859375 11.625 -20.488281 10.3125 -19.75 C 9.007812 -19.019531 7.984375 -17.992188 7.234375 -16.671875 C 6.492188 -15.359375 6.125 -13.882812 6.125 -12.25 C 6.125 -10.613281 6.492188 -9.132812 7.234375 -7.8125 C 7.984375 -6.5 9.007812 -5.472656 10.3125 -4.734375 C 11.625 -4.003906 13.097656 -3.640625 14.734375 -3.640625 Z M 14.734375 -3.640625 "/></g></g><g style="fill:#2c8edd;fill-opacity:1;"><g transform="translate(116.751892, 323.645955)"><path style="stroke:none" d="M 13.375 -24.5 C 15.5 -24.5 17.347656 -24.148438 18.921875 -23.453125 C 20.492188 -22.753906 21.695312 -21.75 22.53125 -20.4375 C 23.375 -19.132812 23.796875 -17.582031 23.796875 -15.78125 C 23.796875 -14.007812 23.375 -12.460938 22.53125 -11.140625 C 21.695312 -9.828125 20.492188 -8.816406 18.921875 -8.109375 C 17.347656 -7.410156 15.5 -7.0625 13.375 -7.0625 L 7.84375 -7.0625 L 7.84375 0 L 3.296875 0 L 3.296875 -24.5 Z M 13.15625 -10.921875 C 15.144531 -10.921875 16.648438 -11.335938 17.671875 -12.171875 C 18.703125 -13.015625 19.21875 -14.21875 19.21875 -15.78125 C 19.21875 -17.34375 18.703125 -18.546875 17.671875 -19.390625 C 16.648438 -20.234375 15.144531 -20.65625 13.15625 -20.65625 L 7.84375 -20.65625 L 7.84375 -10.921875 Z M 13.15625 -10.921875 "/></g></g><g style="fill:#2c8edd;fill-opacity:1;"><g transform="translate(142.156149, 323.645955)"><path style="stroke:none" d="M 21.671875 -3.8125 L 21.671875 0 L 3.296875 0 L 3.296875 -24.5 L 21.171875 -24.5 L 21.171875 -20.6875 L 7.84375 -20.6875 L 7.84375 -14.3125 L 19.671875 -14.3125 L 19.671875 -10.5625 L 7.84375 -10.5625 L 7.84375 -3.8125 Z M 21.671875 -3.8125 "/></g></g><g style="fill:#2c8edd;fill-opacity:1;"><g transform="translate(165.600858, 323.645955)"><path style="stroke:none" d="M 25.0625 -24.5 L 25.0625 0 L 21.3125 0 L 7.8125 -16.59375 L 7.8125 0 L 3.296875 0 L 3.296875 -24.5 L 7.03125 -24.5 L 20.546875 -7.90625 L 20.546875 -24.5 Z M 25.0625 -24.5 "/></g></g><g style="fill:#2c8edd;fill-opacity:1;"><g transform="translate(193.944461, 323.645955)"><path style="stroke:none" d="M 8.265625 -20.65625 L 0.140625 -20.65625 L 0.140625 -24.5 L 20.9375 -24.5 L 20.9375 -20.65625 L 12.8125 -20.65625 L 12.8125 0 L 8.265625 0 Z M 8.265625 -20.65625 "/></g></g><g style="fill:#2c8edd;fill-opacity:1;"><g transform="translate(215.009702, 323.645955)"><path style="stroke:none" d="M 19.1875 -5.671875 L 6.9375 -5.671875 L 4.515625 0 L -0.171875 0 L 10.84375 -24.5 L 15.328125 -24.5 L 26.390625 0 L 21.625 0 Z M 17.671875 -9.234375 L 13.0625 -19.953125 L 8.46875 -9.234375 Z M 17.671875 -9.234375 "/></g></g><g style="fill:#2c8edd;fill-opacity:1;"><g transform="translate(241.218787, 323.645955)"><path style="stroke:none" d="M 3.296875 -24.5 L 7.84375 -24.5 L 7.84375 -3.84375 L 20.65625 -3.84375 L 20.65625 0 L 3.296875 0 Z M 3.296875 -24.5 "/></g></g><g style="fill:#2c8edd;fill-opacity:1;"><g transform="translate(262.179052, 323.645955)"><path style="stroke:none" d="M 11.71875 -10.25 L 7.84375 -6.265625 L 7.84375 0 L 3.296875 0 L 3.296875 -24.5 L 7.84375 -24.5 L 7.84375 -11.9375 L 19.953125 -24.5 L 25.0625 -24.5 L 14.765625 -13.546875 L 25.6875 0 L 20.375 0 Z M 11.71875 -10.25 "/></g></g></g></svg>